<svg width="1115" height="149" viewBox="0 0 1115 149" fill="none" xmlns="http://www.w3.org/2000/svg">
<path d="M33.7131 146H0.758523L50.9716 0.54545H90.6023L140.744 146H107.79L71.3551 33.7841H70.2188L33.7131 146ZM31.6534 88.8267H109.494V112.832H31.6534V88.8267ZM179.939 0.54545V146H149.683V0.54545H179.939ZM226.431 0.54545V146H196.175V0.54545H226.431ZM292.384 148.131C281.162 148.131 271.503 145.858 263.406 141.312C255.357 136.72 249.154 130.233 244.798 121.852C240.442 113.424 238.264 103.457 238.264 91.9517C238.264 80.7301 240.442 70.8816 244.798 62.4062C249.154 53.9309 255.286 47.3258 263.193 42.5909C271.148 37.8561 280.475 35.4886 291.176 35.4886C298.373 35.4886 305.073 36.6487 311.276 38.9688C317.526 41.2415 322.971 44.6742 327.611 49.267C332.298 53.8598 335.944 59.6364 338.548 66.5966C341.152 73.5095 342.455 81.6061 342.455 90.8864V99.196H250.338V80.446H313.974C313.974 76.09 313.027 72.2311 311.134 68.8693C309.24 65.5076 306.612 62.8797 303.25 60.9858C299.936 59.0445 296.077 58.0739 291.673 58.0739C287.08 58.0739 283.009 59.1392 279.457 61.2699C275.954 63.3532 273.207 66.1705 271.219 69.7216C269.23 73.2254 268.212 77.1316 268.165 81.4403V99.267C268.165 104.665 269.159 109.329 271.148 113.259C273.184 117.188 276.048 120.219 279.741 122.349C283.435 124.48 287.814 125.545 292.881 125.545C296.242 125.545 299.32 125.072 302.114 124.125C304.907 123.178 307.298 121.758 309.287 119.864C311.276 117.97 312.791 115.65 313.832 112.903L341.815 114.75C340.395 121.473 337.483 127.345 333.08 132.364C328.723 137.335 323.089 141.218 316.176 144.011C309.311 146.758 301.38 148.131 292.384 148.131ZM377.53 36.9091L397.558 75.0483L418.084 36.9091H449.121L417.516 91.4545L449.973 146H419.078L397.558 108.287L376.393 146H345.143L377.53 91.4545L346.28 36.9091H377.53ZM556.185 0.54545H586.583V101.966C586.583 111.341 584.476 119.485 580.262 126.398C576.095 133.311 570.295 138.637 562.862 142.378C555.428 146.118 546.787 147.989 536.938 147.989C528.179 147.989 520.224 146.45 513.075 143.372C505.972 140.247 500.338 135.512 496.171 129.168C492.004 122.776 489.945 114.75 489.992 105.091H520.603C520.698 108.926 521.479 112.217 522.947 114.963C524.462 117.662 526.522 119.745 529.126 121.213C531.777 122.634 534.902 123.344 538.501 123.344C542.289 123.344 545.485 122.539 548.089 120.929C550.74 119.272 552.753 116.857 554.126 113.685C555.499 110.512 556.185 106.606 556.185 101.966V0.54545ZM652.731 148.131C641.699 148.131 632.158 145.787 624.109 141.099C616.107 136.365 609.928 129.783 605.572 121.355C601.216 112.88 599.038 103.055 599.038 91.8807C599.038 80.6117 601.216 70.7633 605.572 62.3352C609.928 53.8598 616.107 47.2784 624.109 42.5909C632.158 37.8561 641.699 35.4886 652.731 35.4886C663.763 35.4886 673.28 37.8561 681.282 42.5909C689.331 47.2784 695.534 53.8598 699.89 62.3352C704.246 70.7633 706.424 80.6117 706.424 91.8807C706.424 103.055 704.246 112.88 699.89 121.355C695.534 129.783 689.331 136.365 681.282 141.099C673.28 145.787 663.763 148.131 652.731 148.131ZM652.873 124.693C657.892 124.693 662.082 123.273 665.444 120.432C668.806 117.544 671.339 113.614 673.043 108.642C674.795 103.67 675.671 98.0123 675.671 91.6676C675.671 85.3229 674.795 79.6648 673.043 74.6932C671.339 69.7216 668.806 65.7917 665.444 62.9034C662.082 60.0151 657.892 58.571 652.873 58.571C647.807 58.571 643.545 60.0151 640.089 62.9034C636.68 65.7917 634.099 69.7216 632.347 74.6932C630.643 79.6648 629.79 85.3229 629.79 91.6676C629.79 98.0123 630.643 103.67 632.347 108.642C634.099 113.614 636.68 117.544 640.089 120.432C643.545 123.273 647.807 124.693 652.873 124.693ZM718.097 146V36.9091H747.43V55.9432H748.566C750.555 49.1723 753.893 44.0587 758.58 40.6023C763.268 37.0985 768.665 35.3466 774.773 35.3466C776.289 35.3466 777.922 35.4413 779.674 35.6307C781.426 35.8201 782.965 36.0805 784.29 36.4119V63.2585C782.87 62.8324 780.905 62.4536 778.396 62.1222C775.886 61.7907 773.59 61.625 771.506 61.625C767.056 61.625 763.078 62.5956 759.575 64.5369C756.118 66.4309 753.372 69.0824 751.336 72.4915C749.347 75.9006 748.353 79.8305 748.353 84.2812V146H718.097ZM827.054 147.776C818.768 147.776 811.263 145.645 804.54 141.384C797.864 137.075 792.561 130.754 788.631 122.42C784.748 114.04 782.807 103.765 782.807 91.5966C782.807 79.0966 784.819 68.7036 788.844 60.4176C792.868 52.0843 798.219 45.858 804.895 41.7386C811.618 37.572 818.981 35.4886 826.983 35.4886C833.091 35.4886 838.181 36.5303 842.253 38.6136C846.372 40.6496 849.687 43.2064 852.196 46.2841C854.753 49.3144 856.694 52.2973 858.02 55.233H858.943V0.54545H889.128V146H859.298V128.528H858.02C856.599 131.559 854.587 134.565 851.983 137.548C849.426 140.484 846.088 142.922 841.969 144.864C837.897 146.805 832.925 147.776 827.054 147.776ZM836.642 123.699C841.519 123.699 845.638 122.373 849 119.722C852.409 117.023 855.013 113.259 856.812 108.429C858.659 103.599 859.582 97.9413 859.582 91.4545C859.582 84.9678 858.683 79.3333 856.884 74.5511C855.084 69.7689 852.48 66.0758 849.071 63.4716C845.662 60.8674 841.519 59.5653 836.642 59.5653C831.67 59.5653 827.48 60.9148 824.071 63.6136C820.662 66.3125 818.081 70.053 816.33 74.8352C814.578 79.6174 813.702 85.1572 813.702 91.4545C813.702 97.7992 814.578 103.41 816.33 108.287C818.129 113.116 820.709 116.904 824.071 119.651C827.48 122.349 831.67 123.699 836.642 123.699ZM937.112 148.06C930.151 148.06 923.949 146.852 918.504 144.438C913.058 141.975 908.75 138.353 905.577 133.571C902.452 128.741 900.89 122.728 900.89 115.531C900.89 109.471 902.003 104.381 904.228 100.261C906.453 96.142 909.484 92.8277 913.319 90.3182C917.154 87.8087 921.51 85.9148 926.387 84.6364C931.311 83.358 936.472 82.4583 941.87 81.9375C948.215 81.2746 953.328 80.6591 957.211 80.0909C961.094 79.4754 963.911 78.5758 965.663 77.392C967.415 76.2083 968.29 74.4564 968.29 72.1364V71.7102C968.29 67.2121 966.87 63.732 964.029 61.2699C961.236 58.8078 957.258 57.5767 952.097 57.5767C946.652 57.5767 942.32 58.7841 939.1 61.1989C935.88 63.5663 933.75 66.5492 932.708 70.1477L904.725 67.875C906.146 61.2462 908.939 55.517 913.106 50.6875C917.272 45.8106 922.647 42.0701 929.228 39.4659C935.857 36.8144 943.527 35.4886 952.239 35.4886C958.3 35.4886 964.1 36.1989 969.64 37.6193C975.227 39.0398 980.175 41.2415 984.484 44.2244C988.84 47.2074 992.272 51.0426 994.782 55.7301C997.291 60.3703 998.546 65.9337 998.546 72.4205V146H969.853V130.872H969.001C967.249 134.281 964.905 137.288 961.969 139.892C959.034 142.449 955.506 144.461 951.387 145.929C947.268 147.349 942.509 148.06 937.112 148.06ZM945.776 127.179C950.227 127.179 954.157 126.303 957.566 124.551C960.975 122.752 963.65 120.337 965.592 117.307C967.533 114.277 968.504 110.844 968.504 107.009V95.4318C967.557 96.0473 966.255 96.6155 964.597 97.1364C962.987 97.6098 961.165 98.0597 959.129 98.4858C957.093 98.8646 955.057 99.2197 953.021 99.5511C950.985 99.8352 949.138 100.096 947.481 100.332C943.93 100.853 940.828 101.682 938.177 102.818C935.525 103.955 933.466 105.493 931.998 107.435C930.53 109.329 929.796 111.696 929.796 114.537C929.796 118.656 931.288 121.805 934.271 123.983C937.301 126.114 941.136 127.179 945.776 127.179ZM1044.27 82.9318V146H1014.02V36.9091H1042.85V56.1562H1044.13C1046.55 49.8116 1050.6 44.7926 1056.28 41.0994C1061.96 37.3589 1068.85 35.4886 1076.95 35.4886C1084.52 35.4886 1091.13 37.1458 1096.76 40.4602C1102.4 43.7746 1106.77 48.5095 1109.9 54.6648C1113.02 60.7727 1114.59 68.0644 1114.59 76.5398V146H1084.33V81.9375C1084.38 75.2614 1082.67 70.053 1079.22 66.3125C1075.76 62.5246 1071 60.6307 1064.94 60.6307C1060.87 60.6307 1057.27 61.5066 1054.15 63.2585C1051.07 65.0104 1048.65 67.5672 1046.9 70.929C1045.2 74.2434 1044.32 78.2443 1044.27 82.9318Z" fill="#202020"/>
</svg>
