<svg width="20" height="20" viewBox="0 0 20 20" fill="none" xmlns="http://www.w3.org/2000/svg">
<path fill-rule="evenodd" clip-rule="evenodd" d="M10.0013 18.9587C5.0538 18.9587 1.04297 14.9478 1.04297 10.0003C1.04297 5.05283 5.0538 1.04199 10.0013 1.04199C14.9488 1.04199 18.9596 5.05283 18.9596 10.0003C18.9596 14.9478 14.9488 18.9587 10.0013 18.9587ZM13.7346 7.81533C13.9286 7.70924 14.0724 7.53046 14.1346 7.31831C14.1967 7.10615 14.172 6.87802 14.0659 6.68408C13.9598 6.49014 13.781 6.34628 13.5689 6.28416C13.3567 6.22204 13.1286 6.24674 12.9346 6.35283C11.4113 7.18616 10.1513 8.79449 9.3038 10.092C8.99047 10.5712 8.72297 11.0253 8.5088 11.4095C8.32604 11.2326 8.13441 11.0652 7.93464 10.9078C7.74374 10.757 7.54632 10.6147 7.34297 10.4812L7.0813 10.3187C6.88935 10.209 6.66172 10.1802 6.44847 10.2384C6.23523 10.2966 6.05384 10.4371 5.94422 10.6291C5.8346 10.821 5.80572 11.0487 5.86393 11.2619C5.92214 11.4752 6.06269 11.6565 6.25464 11.7662L6.42964 11.8753C6.54964 11.9537 6.7163 12.0687 6.9013 12.2153C7.28297 12.517 7.6938 12.912 7.95297 13.3453C8.03095 13.4757 8.1431 13.5823 8.27729 13.6536C8.41148 13.7249 8.5626 13.7581 8.71431 13.7497C8.86603 13.7413 9.01255 13.6916 9.13804 13.6059C9.26353 13.5202 9.36322 13.4019 9.4263 13.2637L9.50797 13.092C9.86401 12.3729 10.2619 11.6753 10.6996 11.0028C11.5188 9.74866 12.5913 8.44033 13.7346 7.81533Z" fill="#9F9F9F"/>
</svg>
