<svg width="56" height="56" viewBox="0 0 56 56" fill="none" xmlns="http://www.w3.org/2000/svg">
<rect width="56" height="56" fill="#080808"/>
<g clip-path="url(#clip0_4037_2865)">
<path d="M19.1583 18.2095C22.0601 18.2095 24.4125 20.5659 24.4125 23.4726V32.6831C24.4125 32.9254 24.6085 33.1218 24.8503 33.1218C25.0921 33.1218 25.2882 32.9254 25.2882 32.6831V23.4726C25.2882 20.5659 27.6406 18.2095 30.5424 18.2095H37.5481C40.9336 18.2095 43.678 20.9586 43.678 24.3498V26.5497C43.678 28.027 43.1465 29.4551 42.1806 30.5716L36.179 37.5077H29.2263L38.21 27.1245L38.2587 27.0628C38.3658 26.914 38.4238 26.7344 38.4238 26.5497V24.3498C38.4238 23.8654 38.0318 23.4726 37.5481 23.4726H31.4181V23.034C31.4181 22.7918 31.2221 22.5954 30.9803 22.5954C30.7385 22.5954 30.5424 22.7918 30.5424 23.034V32.2446C30.5424 35.1513 28.19 37.5077 25.2882 37.5077H24.4125C21.5106 37.5077 19.1583 35.1513 19.1583 32.2446V23.034C19.1583 22.7918 18.9622 22.5954 18.7204 22.5954C18.4786 22.5954 18.2826 22.7918 18.2826 23.034V37.5077H13.0283V23.4726C13.0283 20.5659 15.3807 18.2095 18.2826 18.2095H19.1583Z" fill="#9430FF"/>
</g>
<defs>
<clipPath id="clip0_4037_2865">
<rect width="31" height="20" fill="white" transform="translate(13 18)"/>
</clipPath>
</defs>
</svg>
