<svg width="56" height="56" viewBox="0 0 56 56" fill="none" xmlns="http://www.w3.org/2000/svg">
<rect width="56" height="56" fill="#080808"/>
<g clip-path="url(#clip0_4037_2822)">
<path fill-rule="evenodd" clip-rule="evenodd" d="M32.9749 10.9375C30.5994 10.0053 27.9856 9.76143 25.4638 10.2367C22.9421 10.7119 20.6257 11.8849 18.8076 13.6072C16.9896 15.3296 15.7514 17.5241 15.2498 19.913C14.7482 22.3022 15.0057 24.7784 15.9896 27.0289C16.9735 29.2793 18.6398 31.2027 20.7776 32.556C20.8346 32.5921 20.8919 32.6277 20.9495 32.6629C20.99 32.6877 21.0309 32.7124 21.0718 32.7369L15 32.7369L15 33.6842C15 36.1201 15.7625 38.5012 17.191 40.5265C18.6193 42.5518 20.6497 44.1303 23.0252 45.0625C25.4006 45.9947 28.0144 46.2386 30.5362 45.7633C33.0579 45.2881 35.3743 44.1152 37.1924 42.3928C39.0105 40.6704 40.2486 38.4759 40.7502 36.087C41.2518 33.6978 40.9944 31.2216 40.0104 28.9711C39.0265 26.7207 37.3602 24.7973 35.2224 23.444C35.1251 23.3825 35.027 23.3222 34.9282 23.2631L41 23.2631L41 22.3158C41 19.8799 40.2375 17.4988 38.8091 15.4735C37.3807 13.4482 35.3503 11.8697 32.9749 10.9375ZM28 21.3684L38.9545 21.3684C38.7881 19.6417 38.1688 17.9762 37.1462 16.5262C35.9375 14.8124 34.2195 13.4768 32.2095 12.688C30.1995 11.8993 27.9878 11.6929 25.854 12.095C23.7202 12.4971 21.7602 13.4896 20.2218 14.947C18.6835 16.4044 17.6358 18.2613 17.2114 20.2828C16.7869 22.3043 17.0048 24.3995 17.8373 26.3038C18.6365 28.1315 19.9675 29.7043 21.6727 30.8403C21.2413 29.9794 21 29.0164 21 28C21 24.3375 24.1341 21.3684 28 21.3684ZM17.0455 34.6316L28 34.6316C31.866 34.6316 35 31.6625 35 28C35 26.9836 34.7587 26.0206 34.3273 25.1597C36.0325 26.2957 37.3636 27.8685 38.1627 29.6962C38.9952 31.6005 39.2131 33.6957 38.7886 35.7172C38.3642 37.7387 37.3165 39.5956 35.7782 41.0531C34.2398 42.5104 32.2798 43.503 30.146 43.905C28.0122 44.3071 25.8005 44.1007 23.7905 43.312C21.7805 42.5233 20.0625 41.1876 18.8538 39.4738C17.8312 38.0238 17.2119 36.3583 17.0455 34.6316ZM23.0009 27.9052C23.0536 25.3643 25.218 23.314 27.9 23.2641L27.9 25.0562C27.5599 26.4699 26.3852 27.5828 24.8929 27.9052L23.0009 27.9052ZM23.0009 28.0947C23.0536 30.6356 25.218 32.686 27.9 32.7359L27.9 30.9438C27.5599 29.5299 26.385 28.417 24.8925 28.0947L23.0009 28.0947ZM28.1 32.7359C30.782 32.686 32.9464 30.6356 32.999 28.0947L31.1075 28.0947C29.6151 28.417 28.4402 29.5298 28.1 30.9435L28.1 32.7359ZM32.999 27.9052C32.9464 25.3644 30.782 23.314 28.1 23.2641L28.1 25.0565C28.4402 26.4701 29.6149 27.5829 31.1071 27.9052L32.999 27.9052Z" fill="#837800"/>
</g>
<defs>
<clipPath id="clip0_4037_2822">
<rect width="36" height="26" fill="white" transform="translate(41 10) rotate(90)"/>
</clipPath>
</defs>
</svg>
