<svg width="57" height="56" viewBox="0 0 57 56" fill="none" xmlns="http://www.w3.org/2000/svg">
<rect width="56" height="56" transform="translate(0.5)" fill="#080808"/>
<g clip-path="url(#clip0_4037_2852)">
<path fill-rule="evenodd" clip-rule="evenodd" d="M20.9886 20.2329L13 28C14.5979 29.5536 16.4232 30.8629 18.4133 31.8872C18.9634 33.3059 19.8256 34.6364 21 35.7782C25.4183 40.0739 32.5818 40.0739 37 35.7782C38.1744 34.6364 39.0366 33.3059 39.5867 31.8872C41.5768 30.8629 43.4022 29.5536 45 28L37.0178 20.2392C37.0119 20.2334 37.006 20.2276 37 20.2218C32.5818 15.9261 25.4183 15.9261 21 20.2218C20.9962 20.2255 20.9924 20.2292 20.9886 20.2329ZM36.2356 33.2886C33.9076 34.0524 31.4638 34.4436 29 34.4436C26.5362 34.4436 24.0925 34.0524 21.7645 33.2886C22.0167 33.6139 22.2952 33.9262 22.6 34.2225C26.1346 37.6592 31.8654 37.6592 35.4 34.2225C35.7048 33.9262 35.9834 33.6139 36.2356 33.2886ZM22.7641 21.6219C23.3643 22.0074 24.0026 22.3374 24.6704 22.6064C26.043 23.1591 27.5142 23.4437 29 23.4437C30.4858 23.4437 31.957 23.1591 33.3296 22.6064C33.9974 22.3374 34.6357 22.0074 35.236 21.6219C31.7454 18.3927 26.2546 18.3927 22.7641 21.6219Z" fill="#0B7DFF"/>
</g>
<defs>
<clipPath id="clip0_4037_2852">
<rect width="32" height="22" fill="white" transform="translate(13 17)"/>
</clipPath>
</defs>
</svg>
