<svg width="56" height="56" viewBox="0 0 56 56" fill="none" xmlns="http://www.w3.org/2000/svg">
<rect width="56" height="56" fill="#080808"/>
<g clip-path="url(#clip0_4037_2834)">
<path d="M28 15C35.1799 15 41 20.8201 41 28V37.1C41 38.1343 40.5891 39.1263 39.8577 39.8577C39.1264 40.5891 38.1344 41 37.1 41H28.65V35.2969C28.65 33.9956 28.7293 32.6475 29.4118 31.5399C29.9005 30.7461 30.5541 30.0668 31.3284 29.5478C32.1027 29.0289 32.9795 28.6826 33.8994 28.5323L34.1484 28.492C34.251 28.457 34.3401 28.3907 34.4032 28.3024C34.4663 28.2142 34.5002 28.1085 34.5002 28C34.5002 27.8915 34.4663 27.7858 34.4032 27.6976C34.3401 27.6093 34.251 27.543 34.1484 27.5079L33.8994 27.4676C32.5553 27.2481 31.3142 26.6119 30.3512 25.6489C29.3881 24.6859 28.7519 23.4447 28.5324 22.1006L28.4921 21.8516C28.457 21.749 28.3907 21.6599 28.3025 21.5968C28.2142 21.5338 28.1085 21.4998 28 21.4998C27.8916 21.4998 27.7858 21.5338 27.6976 21.5968C27.6094 21.6599 27.5431 21.749 27.508 21.8516L27.4677 22.1006C27.3175 23.0205 26.9712 23.8974 26.4522 24.6717C25.9333 25.446 25.2539 26.0996 24.4601 26.5882C23.3525 27.2707 22.0044 27.35 20.7031 27.35H15.0156C15.3556 20.4723 21.0385 15 28 15Z" fill="#F06225"/>
<path d="M15 28.65H20.7031C22.0044 28.65 23.3525 28.7293 24.4601 29.4118C25.3259 29.9453 26.0547 30.6741 26.5882 31.5399C27.2707 32.6475 27.35 33.9956 27.35 35.2969V41H18.9C17.8657 41 16.8737 40.5891 16.1423 39.8577C15.4109 39.1263 15 38.1343 15 37.1V28.65ZM41 16.3C41 16.6448 40.863 16.9754 40.6192 17.2192C40.3754 17.463 40.0448 17.6 39.7 17.6C39.3552 17.6 39.0246 17.463 38.7808 17.2192C38.537 16.9754 38.4 16.6448 38.4 16.3C38.4 15.9552 38.537 15.6246 38.7808 15.3808C39.0246 15.137 39.3552 15 39.7 15C40.0448 15 40.3754 15.137 40.6192 15.3808C40.863 15.6246 41 15.9552 41 16.3Z" fill="#F06225"/>
</g>
<defs>
<clipPath id="clip0_4037_2834">
<rect width="26" height="26" fill="white" transform="translate(15 15)"/>
</clipPath>
</defs>
</svg>
