<svg width="56" height="56" viewBox="0 0 56 56" fill="none" xmlns="http://www.w3.org/2000/svg">
<rect width="56" height="56" fill="#080808"/>
<path d="M14.2554 31.3063C14.2554 29.8938 14.537 28.495 15.0842 27.1901C15.6314 25.885 16.4333 24.6993 17.4444 23.7005C18.4554 22.7017 19.6557 21.9094 20.9767 21.3688C22.2977 20.8283 23.7135 20.55 25.1434 20.55V31.3063H14.2554Z" fill="#442781"/>
<path d="M14.2554 31.3062C14.2554 32.7187 14.537 34.1174 15.0842 35.4225C15.6314 36.7275 16.4333 37.9132 17.4444 38.912C18.4554 39.9108 19.6557 40.7032 20.9767 41.2437C22.2977 41.7843 23.7135 42.0625 25.1434 42.0625V31.3062H14.2554Z" fill="#61459C"/>
<path d="M36.0314 31.3062C36.0314 32.7187 35.75 34.1174 35.2029 35.4225C34.6557 36.7275 33.8537 37.9132 32.8425 38.912C31.8315 39.9108 30.6312 40.7032 29.3101 41.2437C27.9892 41.7843 26.5734 42.0625 25.1436 42.0625V31.3062H36.0314Z" fill="#A992DB"/>
<path d="M42.7443 22.0137C42.7443 26.4741 39.084 30.09 34.5691 30.09H26.394V22.0137C26.394 17.5534 30.0542 13.9375 34.5691 13.9375C39.084 13.9375 42.7443 17.5534 42.7443 22.0137Z" fill="#FF7917"/>
</svg>
