<svg width="66" height="54" viewBox="0 0 66 54" fill="none" xmlns="http://www.w3.org/2000/svg">
<path opacity="0.2" d="M59.25 32.2501C59.25 36.2283 57.6696 40.0436 54.8566 42.8567C52.0436 45.6697 48.2282 47.2501 44.25 47.2501V53.2501C49.8195 53.2501 55.161 51.0376 59.0992 47.0993C63.0375 43.161 65.25 37.8196 65.25 32.2501V0.750061H36.75V29.2501H59.25V32.2501ZM23.25 32.2501C23.25 36.2283 21.6696 40.0436 18.8566 42.8567C16.0436 45.6697 12.2282 47.2501 8.25 47.2501V53.2501C13.8195 53.2501 19.161 51.0376 23.0992 47.0993C27.0375 43.161 29.25 37.8196 29.25 32.2501V0.750061H0.75V29.2501H23.25V32.2501Z" fill="white"/>
</svg>
