<svg width="101" height="32" viewBox="0 0 101 32" fill="none" xmlns="http://www.w3.org/2000/svg">
<path d="M10.6667 31.0896V21.3333H16.3052V21.3339H21.3333L27.2606 27.3666C25.8991 28.7154 24.2966 29.8214 22.5234 30.6141L16.3052 24.3864V31.9972C16.2037 31.999 16.1019 32 16 32C14.1299 32 12.3348 31.6792 10.6667 31.0896Z" fill="#080808"/>
<path d="M31.0896 21.3333C31.6792 19.6652 32 17.8701 32 16C32 15.8981 31.999 15.7963 31.9972 15.6948H24.3864L30.6141 9.47657C29.8214 7.70339 28.7154 6.1009 27.3666 4.73945L21.3339 10.6667V15.6948H21.3333V21.3333H31.0896Z" fill="#080808"/>
<path d="M0 15.9988C0.000132979 14.1292 0.320945 12.3345 0.91043 10.6667H10.6667L10.6667 16.3052H10.6661V21.3333L4.63338 27.2606C3.28456 25.8991 2.17861 24.2966 1.3859 22.5234L7.61362 16.3052H0.00285184C0.000960616 16.2041 7.22326e-06 16.1027 0 16.0012V15.9988Z" fill="#080808"/>
<path d="M15.6948 0.00285188C15.7963 0.000953438 15.898 0 16 0C17.87 0 19.6652 0.320823 21.3333 0.910431V10.6667H15.6948V10.6661H10.6666L4.73943 4.63338C6.10088 3.28456 7.70337 2.17861 9.47655 1.3859L15.6948 7.61362V0.00285188Z" fill="#080808"/>
<path d="M42.9222 26H38.9847L46.1537 5.63636H50.7077L57.8867 26H53.9492L48.5102 9.8125H48.3512L42.9222 26ZM43.0514 18.0156H53.7901V20.9787H43.0514V18.0156ZM62.8892 5.63636V26H59.2897V5.63636H62.8892ZM69.07 5.63636V26H65.4705V5.63636H69.07ZM78.4127 26.2983C76.8814 26.2983 75.559 25.9801 74.4453 25.3438C73.3383 24.7008 72.4865 23.7926 71.8899 22.6193C71.2934 21.4394 70.9951 20.0507 70.9951 18.4531C70.9951 16.8821 71.2934 15.5033 71.8899 14.3168C72.4932 13.1236 73.335 12.1955 74.4155 11.5327C75.496 10.8632 76.7654 10.5284 78.2237 10.5284C79.165 10.5284 80.0533 10.6809 80.8885 10.9858C81.7304 11.2841 82.4728 11.7481 83.1158 12.3778C83.7654 13.0076 84.2758 13.8097 84.647 14.7841C85.0183 15.7519 85.2039 16.9053 85.2039 18.2443V19.348H72.6854V16.9219H81.7536C81.747 16.2325 81.5978 15.6193 81.3061 15.0824C81.0145 14.5388 80.6068 14.1113 80.0831 13.7997C79.5661 13.4882 78.9629 13.3324 78.2735 13.3324C77.5377 13.3324 76.8914 13.5114 76.3345 13.8693C75.7777 14.2206 75.3435 14.6847 75.032 15.2614C74.7271 15.8314 74.5713 16.4579 74.5647 17.1406V19.2585C74.5647 20.1468 74.7271 20.9091 75.0519 21.5455C75.3767 22.1752 75.8308 22.6591 76.4141 22.9972C76.9974 23.3286 77.6802 23.4943 78.4624 23.4943C78.9861 23.4943 79.46 23.4214 79.8843 23.2756C80.3085 23.1231 80.6764 22.901 80.988 22.6094C81.2995 22.3177 81.5348 21.9564 81.6939 21.5256L85.0547 21.9034C84.8426 22.7917 84.4382 23.5672 83.8416 24.2301C83.2517 24.8864 82.496 25.3968 81.5746 25.7614C80.6532 26.1193 79.5992 26.2983 78.4127 26.2983ZM89.744 10.7273L92.8264 16.3651L95.9585 10.7273H99.7667L95.1631 18.3636L99.8463 26H96.0579L92.8264 20.5014L89.6247 26H85.8065L90.4599 18.3636L85.9258 10.7273H89.744Z" fill="#080808"/>
</svg>
